PathFileType	4	(X/Y/Z)	C:\Users\chris\Documents\GitHub\baseballds\vids\pitch5_Sports2D\pitch5_Sports2D_m_person02.trc
DataRate	CameraRate	NumFrames	NumMarkers	Units	OrigDataRate	OrigDataStartFrame	OrigNumFrames
30	30	6	22	m	30	18	149
Frame#	Time	Hip			RHip			RKnee			RAnkle			RBigToe			RSmallToe			RHeel			LHip			LKnee			LAnkle			LBigToe			LSmallToe			LHeel			Neck			Head			Nose			RShoulder			RElbow			RWrist			LShoulder			LElbow			LWrist		
		X1	Y1	Z1	X2	Y2	Z2	X3	Y3	Z3	X4	Y4	Z4	X5	Y5	Z5	X6	Y6	Z6	X7	Y7	Z7	X8	Y8	Z8	X9	Y9	Z9	X10	Y10	Z10	X11	Y11	Z11	X12	Y12	Z12	X13	Y13	Z13	X14	Y14	Z14	X15	Y15	Z15	X16	Y16	Z16	X17	Y17	Z17	X18	Y18	Z18	X19	Y19	Z19	X20	Y20	Z20	X21	Y21	Z21	X22	Y22	Z22
18	0.6	1.9928344275067675	1.2426750716169508	0.0	2.0174592495703942	1.2431067018727406	0.0	2.0687914016847806	1.1385397759424671	0.0	2.058616743364759	1.0306294626161292	0.0	2.088093831665373	1.0066818491660559	0.0	2.0872220438157507	1.0055902351909918	0.0	2.0488341772392964	1.0168239636540386	0.0	1.9724798259083378	1.2426353622883004	0.0	1.9435843154170718	1.1280650052955743	0.0	1.897183984587779	1.0341076592521867	0.0	1.902001317101299	0.9789778374499446	0.0	1.8923900572614274	0.9844697464077511	0.0	1.8892056592433049	1.0246357927978011	0.0	2.024840591639237	1.3800830087394467	0.0	2.04292120661479	1.448362949185491	0.0	2.047342133245708	1.410471444530609	0.0	2.0467359420765474	1.3683863204228566	0.0	2.0233155530179276	1.3382099901330813	0.0	2.041489286443302	1.2729296171760198	0.0	1.9904084644532252	1.360689796943019	0.0	1.9597604708719265	1.298573073956796	0.0	2.0414209314777976	1.276925813574459	0.0
19	0.6333333333333333	2.0187440071746963	1.245323889831169	0.0	2.0435350324037493	1.2465649268079437	0.0	2.0880355253736114	1.1332973598502	0.0	2.1008418719407103	1.0241346538985217	0.0	2.133231085072869	1.0140181175985985	0.0	2.135970204689607	1.0074396289254928	0.0	2.0969108611064198	1.007257051909349	0.0	1.9979419787080657	1.2468857279383676	0.0	1.964386698337317	1.1342757892020379	0.0	1.9099968806163026	1.055400150262716	0.0	1.9020479753509973	0.9966394916009869	0.0	1.8941532559837777	1.002973955767757	0.0	1.8997449069503956	1.0494990969847415	0.0	2.050759579489494	1.383675472878775	0.0	2.0682319884554574	1.450753061918385	0.0	2.0714362387547296	1.4133717133577233	0.0	2.072011833145295	1.3697927875846219	0.0	2.0442142222804303	1.3371783489475253	0.0	2.065800700123351	1.2763016232158455	0.0	2.014957225066149	1.3634833914891586	0.0	1.9826627658262905	1.3043061546384116	0.0	2.0713042654782967	1.2812872017244867	0.0
20	0.6666666666666666	2.044855313011983	1.2438254959907944	0.0	2.0694193341499183	1.246299787664989	0.0	2.109259628035176	1.1284508628888368	0.0	2.1347761042166606	1.0225177313094558	0.0	2.1665455043860717	1.0198253492851597	0.0	2.1722988614070173	1.0093274888598418	0.0	2.134994186046273	1.0041870979209346	0.0	2.0237541865779565	1.2473831040162728	0.0	1.9885156332885416	1.1358772229424556	0.0	1.9277744057284132	1.079551231308645	0.0	1.9046386857373838	1.0222662618825706	0.0	1.900253662398924	1.0290378141342231	0.0	1.9149310814459084	1.0766025502794687	0.0	2.075625351933001	1.3830594902483981	0.0	2.09154572788699	1.4481490387101497	0.0	2.0926569137615543	1.4122777164080174	0.0	2.0964266634295012	1.3674574858263342	0.0	2.067992611869339	1.3332693961592539	0.0	2.093066630899527	1.2751690652857903	0.0	2.0386409243119954	1.3626339395065534	0.0	2.006664756101914	1.3071729118800195	0.0	2.0915636421117294	1.2819592433439981	0.0
21	0.7	2.0702172927077687	1.2392020490562374	0.0	2.0945391213133115	1.242377073443658	0.0	2.132972713176924	1.1244187880884313	0.0	2.158516941728228	1.020662042823261	0.0	2.188182357798117	1.0171753828432737	0.0	2.194536137496646	1.0067774932343692	0.0	2.159742003132566	1.0029552707395828	0.0	2.0495358224918596	1.2443043353615364	0.0	2.0151874680714785	1.1321543326648822	0.0	1.95206816450214	1.1037497276849428	0.0	1.9159646439484868	1.0523862295202768	0.0	1.9139702580113862	1.0582699761097323	0.0	1.9380629074680724	1.1046329754119832	0.0	2.1005015531897344	1.3782134844062846	0.0	2.1154987092290725	1.442088128712933	0.0	2.115329422226001	1.4074264201339812	0.0	2.1197474507459058	1.3611737184380874	0.0	2.0936678638720965	1.325203765896869	0.0	2.122945106177996	1.268632597308976	0.0	2.0622163341359325	1.3587738504052609	0.0	2.0297442982567344	1.3058687716388366	0.0	2.094135548867197	1.2775454560265815	0.0
22	0.7333333333333333	2.094815690653499	1.2324298221325625	0.0	2.1182418280341637	1.2341491511587115	0.0	2.1581045280637547	1.1199700077881438	0.0	2.172999726760445	1.01645751156592	0.0	2.2018399537904463	1.00657708455663	0.0	2.2058942158772585	0.9994141885173915	0.0	2.17231339226986	1.00054261840089	0.0	2.0746393078506755	1.2368070314049877	0.0	2.0440076843271444	1.1233599947694901	0.0	1.9818545192173826	1.1227847092265788	0.0	1.9388511122039525	1.0819159809142436	0.0	1.9376775852856791	1.0862392555401599	0.0	1.968939968017707	1.1286124641784683	0.0	2.1252458147533537	1.3694761919827478	0.0	2.1400393747751725	1.4339121703049567	0.0	2.140461605966581	1.3986253625671337	0.0	2.1429139123076344	1.3507042312115591	0.0	2.1211885329024307	1.3113989927517666	0.0	2.154764333703219	1.257452547726334	0.0	2.0860588589459885	1.351483987804628	0.0	2.051537119168848	1.3005592074941312	0.0	2.0949566373347674	1.2694346692510454	0.0
23	0.7666666666666666	2.118567000798963	1.224749551944129	0.0	2.140409540549845	1.2238292093278602	0.0	2.181972417143872	1.1140507009392584	0.0	2.1806067071992703	1.0112644930892796	0.0	2.2099788721391764	0.9951102192804548	0.0	2.210567973564793	0.9908922187462597	0.0	2.1767632022218146	0.9968382737613368	0.0	2.0982494732852084	1.2266306053059008	0.0	2.0748698162945347	1.111964661638442	0.0	2.0151159665041676	1.1326458664204988	0.0	1.9710713490452139	1.1042425153876194	0.0	1.9710491790843747	1.1081514270022919	0.0	2.004578417271382	1.1424002881996227	0.0	2.148899356541655	1.3588197656648366	0.0	2.164176955967526	1.4246560824105863	0.0	2.166274122099881	1.387389295883341	0.0	2.1666976381093823	1.3376844549733469	0.0	2.1511634086343636	1.2929793551965114	0.0	2.1876650764134267	1.244387974703415	0.0	2.110030698677979	1.3419537656558016	0.0	2.0726238787782276	1.2933865415895365	0.0	2.106810779779816	1.260349279207161	0.0
